<svg id="tw-travel-logo2" xmlns="http://www.w3.org/2000/svg" width="153.248" height="62.006" viewBox="0 0 153.248 62.006">
  <g id="Group_4" data-name="Group 4" transform="translate(-128 -108.994)">
    <path id="Subtraction_2" data-name="Subtraction 2" d="M34,16H19V7.5a7.5,7.5,0,0,1,15,0V16Z" transform="translate(112.695 126.506) rotate(-31)" fill="#4a4a4a"/>
    <path id="Subtraction_3" data-name="Subtraction 3" d="M28.561,11.082H19v-6.3a4.78,4.78,0,1,1,9.561,0v6.3Z" transform="translate(117.228 128.796) rotate(-31)" fill="#ffc1c1"/>
  </g>
  <g id="Group_5" data-name="Group 5" transform="translate(45.981)">
    <path id="Subtraction_2-2" data-name="Subtraction 2" d="M7.5,16A7.508,7.508,0,0,1,0,8.5V0H15V8.5A7.509,7.509,0,0,1,7.5,16Z" transform="translate(12.858 21.441) rotate(-149)" fill="#4a4a4a"/>
    <path id="Subtraction_3-2" data-name="Subtraction 3" d="M4.781,11.082A4.786,4.786,0,0,1,0,6.3V0H9.561V6.3A4.786,4.786,0,0,1,4.781,11.082Z" transform="translate(10.858 19.515) rotate(-149)" fill="#ffc1c1"/>
  </g>
  <path id="Subtraction_9" data-name="Subtraction 9" d="M87,60H19V34a34,34,0,1,1,68,0V60Z" transform="translate(-19 2.006)" fill="#4a4a4a"/>
  <circle id="Ellipse_8" data-name="Ellipse 8" cx="3" cy="3" r="3" transform="translate(23 27.006)" fill="#f0f0f0"/>
  <path id="Polygon_3" data-name="Polygon 3" d="M2.636,1.481a1,1,0,0,1,1.728,0L6.123,4.5A1,1,0,0,1,5.259,6H1.741A1,1,0,0,1,.877,4.5Z" transform="translate(38 39.006) rotate(180)" fill="#f0f0f0"/>
  <path id="Path_3" data-name="Path 3" d="M.5,0c.276,0,.5.143.5.32V4.161c0,.177-.224.32-.5.32S0,4.338,0,4.161V.32C0,.143.224,0,.5,0Z" transform="translate(34 36.006)" fill="#f0f0f0"/>
  <g id="Group_6" data-name="Group 6" transform="translate(-128.109 -109.994)">
    <path id="Exclusion_1" data-name="Exclusion 1" d="M5.8,3a7.406,7.406,0,0,1-3.445-.832A6,6,0,0,1,0,0H.526A6.933,6.933,0,0,0,5.8,2a6.932,6.932,0,0,0,5.273-2H11.6A6,6,0,0,1,9.246,2.168,7.4,7.4,0,0,1,5.8,3Z" transform="translate(151.219 150)" fill="#f0f0f0"/>
    <path id="Exclusion_2" data-name="Exclusion 2" d="M5.8,3a7.406,7.406,0,0,1-3.445-.832A6,6,0,0,1,0,0H.526A6.933,6.933,0,0,0,5.8,2a6.932,6.932,0,0,0,5.273-2H11.6A6,6,0,0,1,9.246,2.168,7.4,7.4,0,0,1,5.8,3Z" transform="translate(162.399 150)" fill="#f0f0f0"/>
  </g>
  <circle id="Ellipse_9" data-name="Ellipse 9" cx="3" cy="3" r="3" transform="translate(40 27.006)" fill="#f0f0f0"/>
  <path id="Subtraction_10" data-name="Subtraction 10" d="M15.32,10.613a4.006,4.006,0,0,1-1.97-.519L2.037,3.691A3.87,3.87,0,0,1,0,.253l13.67,7.21a4.022,4.022,0,0,0,1.65.356,3.973,3.973,0,0,0,1.65-.356L30.632,0A3.894,3.894,0,0,1,28.6,3.691l-11.314,6.4A4.006,4.006,0,0,1,15.32,10.613Z" transform="translate(19 46.602)" fill="#f0f0f0"/>
  <g id="Group_23" data-name="Group 23" transform="translate(0 -13.315)">
    <path id="Path_6" data-name="Path 6" d="M7.4-8.258H4.431V0H3.18V-8.258H.216v-.984H7.4ZM11.985,0q-.063-.311-.1-.549a4.03,4.03,0,0,1-.041-.479,2.916,2.916,0,0,1-.911.828A2.329,2.329,0,0,1,9.725.133,2.245,2.245,0,0,1,8.091-.416,2.02,2.02,0,0,1,7.529-1.93a1.774,1.774,0,0,1,.8-1.539,3.72,3.72,0,0,1,2.161-.555h1.358V-4.7a1.26,1.26,0,0,0-.368-.955,1.446,1.446,0,0,0-1.041-.352,1.5,1.5,0,0,0-.981.308.926.926,0,0,0-.378.74H7.885L7.872-5A1.662,1.662,0,0,1,8.58-6.373,2.907,2.907,0,0,1,10.506-7a2.836,2.836,0,0,1,1.879.594A2.1,2.1,0,0,1,13.1-4.691v3.307a6.437,6.437,0,0,0,.038.711,3.656,3.656,0,0,0,.14.673ZM9.91-.914a2.226,2.226,0,0,0,1.225-.349,1.659,1.659,0,0,0,.711-.8V-3.18h-1.4A1.82,1.82,0,0,0,9.234-2.8a1.139,1.139,0,0,0-.454.9.942.942,0,0,0,.286.724A1.2,1.2,0,0,0,9.91-.914ZM16.03,0h-1.25V-6.868h1.25Zm0-8.626h-1.25V-9.9h1.25ZM19.477-2.5l.146.832h.038l.178-.832L21.21-6.868h1L23.59-2.5l.2.927h.038l.184-.927,1.079-4.367h1.244L24.34,0H23.33L22-4.183l-.286-1.168-.038.006-.273,1.162L20.1,0H19.09L17.1-6.868h1.244ZM31.545,0q-.063-.311-.1-.549a4.03,4.03,0,0,1-.041-.479,2.916,2.916,0,0,1-.911.828,2.329,2.329,0,0,1-1.209.333,2.245,2.245,0,0,1-1.635-.549,2.02,2.02,0,0,1-.562-1.514,1.774,1.774,0,0,1,.8-1.539,3.72,3.72,0,0,1,2.161-.555h1.358V-4.7a1.26,1.26,0,0,0-.368-.955A1.446,1.446,0,0,0,30-6.011a1.5,1.5,0,0,0-.981.308.926.926,0,0,0-.378.74H27.444L27.432-5a1.662,1.662,0,0,1,.708-1.371A2.907,2.907,0,0,1,30.066-7a2.836,2.836,0,0,1,1.879.594,2.1,2.1,0,0,1,.711,1.711v3.307a6.437,6.437,0,0,0,.038.711,3.656,3.656,0,0,0,.14.673ZM29.469-.914a2.226,2.226,0,0,0,1.225-.349,1.659,1.659,0,0,0,.711-.8V-3.18H30a1.82,1.82,0,0,0-1.209.381,1.139,1.139,0,0,0-.454.9.942.942,0,0,0,.286.724A1.2,1.2,0,0,0,29.469-.914Zm5.885-5.954.089,1.022a2.494,2.494,0,0,1,.86-.847A2.3,2.3,0,0,1,37.481-7a2.242,2.242,0,0,1,1.72.651,2.856,2.856,0,0,1,.609,2.009V0H38.56V-4.31A1.858,1.858,0,0,0,38.2-5.6a1.437,1.437,0,0,0-1.095-.381,1.763,1.763,0,0,0-.955.26,1.9,1.9,0,0,0-.663.711V0h-1.25V-6.868Zm15.528-1.39H47.912V0h-1.25V-8.258H43.7v-.984h7.186Zm3.727,2.495L53.968-5.8a1.432,1.432,0,0,0-.835.235,1.507,1.507,0,0,0-.524.66V0h-1.25V-6.868h1.117l.121,1a2.384,2.384,0,0,1,.72-.832A1.685,1.685,0,0,1,54.3-7a1.545,1.545,0,0,1,.267.022,1.767,1.767,0,0,1,.209.048ZM59.8,0q-.063-.311-.1-.549a4.03,4.03,0,0,1-.041-.479,2.916,2.916,0,0,1-.911.828,2.329,2.329,0,0,1-1.209.333,2.245,2.245,0,0,1-1.635-.549,2.02,2.02,0,0,1-.562-1.514,1.774,1.774,0,0,1,.8-1.539A3.72,3.72,0,0,1,58.3-4.024h1.358V-4.7a1.26,1.26,0,0,0-.368-.955,1.446,1.446,0,0,0-1.041-.352,1.5,1.5,0,0,0-.981.308.926.926,0,0,0-.378.74H55.7L55.689-5A1.662,1.662,0,0,1,56.4-6.373,2.907,2.907,0,0,1,58.324-7,2.836,2.836,0,0,1,60.2-6.4a2.1,2.1,0,0,1,.711,1.711v3.307a6.437,6.437,0,0,0,.038.711,3.656,3.656,0,0,0,.14.673ZM57.727-.914a2.226,2.226,0,0,0,1.225-.349,1.659,1.659,0,0,0,.711-.8V-3.18h-1.4a1.82,1.82,0,0,0-1.209.381,1.139,1.139,0,0,0-.454.9.942.942,0,0,0,.286.724A1.2,1.2,0,0,0,57.727-.914Zm6.964-1.111.108.482h.038l.121-.482,1.581-4.843h1.276L65.288,0h-.946L61.784-6.868h1.282ZM71.471.133a2.9,2.9,0,0,1-2.282-.955A3.6,3.6,0,0,1,68.342-3.3V-3.58a3.522,3.522,0,0,1,.873-2.441A2.689,2.689,0,0,1,71.281-7a2.6,2.6,0,0,1,2.1.838,3.338,3.338,0,0,1,.711,2.234v.781H69.637l-.019.032a2.715,2.715,0,0,0,.5,1.628,1.6,1.6,0,0,0,1.352.638,3.146,3.146,0,0,0,1.114-.181,2.561,2.561,0,0,0,.828-.5l.489.813a2.905,2.905,0,0,1-.971.6A3.934,3.934,0,0,1,71.471.133Zm-.19-6.145a1.354,1.354,0,0,0-1.073.53,2.511,2.511,0,0,0-.546,1.33l.013.032h3.167v-.165a1.917,1.917,0,0,0-.394-1.231A1.4,1.4,0,0,0,71.281-6.011ZM76.614,0h-1.25V-9.9h1.25Z" transform="translate(76 60.006)" fill="#4a4a4a"/>
    <path id="Path_5" data-name="Path 5" d="M14.3-7.92a17.715,17.715,0,0,0-3.424-3.408.613.613,0,0,0-.816-.032.572.572,0,0,0-.048.8c.448.576.88,1.168,1.264,1.76-1.984.176-4.032.272-6.128.3A16.382,16.382,0,0,0,8.08-11.728c.56-.832.352-1.456-.368-1.792a1.185,1.185,0,0,0-1.744.64,29.73,29.73,0,0,1-2.5,4.4C3.12-8.5,2.784-8.5,2.432-8.5c-.88-.032-1.232.336-1.216,1.072,0,.736.416,1.152,1.312,1.1a54.885,54.885,0,0,0,9.44-1.392c.192.336.384.672.544.992a1.008,1.008,0,0,0,1.6.464A1.044,1.044,0,0,0,14.3-7.92Zm-2.032,2.4H3.68a.836.836,0,0,0-.928.928V.5c0,.672.384.944,1.056.944.656,0,1.056-.272,1.056-.944V.24h6.224V.512c0,.672.416.944,1.072.944.672,0,1.04-.272,1.04-.944v-5.1A.829.829,0,0,0,12.272-5.52ZM4.864-.96V-4.144a.185.185,0,0,1,.192-.192H10.9a.185.185,0,0,1,.192.192V-.96ZM23.84-11.392h3.232a.4.4,0,0,0,.448-.448.4.4,0,0,0-.448-.432H26.24v-.64a.666.666,0,0,0-.752-.688c-.5,0-.768.256-.768.688v.64h-.88a.4.4,0,0,0-.448.432A.4.4,0,0,0,23.84-11.392Zm-3.984.928c.032.368.336.512.688.448a5.165,5.165,0,0,0,.816-.224c-.208.384-.416.752-.64,1.088-.112,0-.224.016-.336.016a.516.516,0,0,0-.528.672c.048.4.352.544.752.464a8.818,8.818,0,0,0,2.208-.7c.016.048.048.112.064.176a.425.425,0,0,0,.64.288.464.464,0,0,0,.24-.672,5.617,5.617,0,0,0-.672-1.056.348.348,0,0,0-.48-.112.344.344,0,0,0-.128.48l.1.24c-.288.048-.576.08-.864.112a8.041,8.041,0,0,0,1.472-2.112.556.556,0,0,0-.272-.832.61.61,0,0,0-.848.384c-.08.208-.16.416-.256.624-.192.016-.384.048-.608.064a8.043,8.043,0,0,0,.832-1.6.521.521,0,0,0-.416-.752c-.4-.1-.7.032-.784.464a16.2,16.2,0,0,1-.5,1.92C19.968-11.056,19.808-10.864,19.856-10.464Zm7.376-.016c.032.384.32.512.688.448a4.619,4.619,0,0,0,.752-.176,12,12,0,0,1-.688.992,1.211,1.211,0,0,1-.24.016c-.416.016-.576.256-.528.672.064.384.336.528.736.464a8.035,8.035,0,0,0,2.208-.7l.1.288a.431.431,0,0,0,.64.3.441.441,0,0,0,.24-.656A4.263,4.263,0,0,0,30.512-9.9a.354.354,0,0,0-.48-.128c-.176.08-.24.224-.144.464l.048.144a8.927,8.927,0,0,1-.912.128,8.559,8.559,0,0,0,1.6-2.064.561.561,0,0,0-.256-.832.569.569,0,0,0-.848.336c-.1.224-.208.464-.32.672-.176.032-.368.032-.56.048a7.367,7.367,0,0,0,.8-1.584.525.525,0,0,0-.4-.752.59.59,0,0,0-.784.464,15.582,15.582,0,0,1-.512,1.92C27.36-11.072,27.184-10.88,27.232-10.48Zm-8.88-.56a.774.774,0,0,0,1.28.1.788.788,0,0,0-.16-1.28,10.091,10.091,0,0,0-1.856-1.152.481.481,0,0,0-.64.128.5.5,0,0,0,.064.688C17.44-12.128,17.936-11.552,18.352-11.04Zm5.872.848h2.464a.4.4,0,0,0,.432-.416.391.391,0,0,0-.432-.416H24.224a.384.384,0,0,0-.432.416A.391.391,0,0,0,24.224-10.192Zm0,1.168H26.7a.387.387,0,0,0,.416-.416.379.379,0,0,0-.416-.416h-2.48a.391.391,0,0,0-.432.416A.4.4,0,0,0,24.224-9.024Zm-4.64,1.888a.8.8,0,0,0-.176-1.3,11.02,11.02,0,0,0-1.936-1.152.512.512,0,0,0-.672.176.523.523,0,0,0,.1.672L18.32-7.2C18.736-6.72,19.184-6.688,19.584-7.136Zm4.208.288a.737.737,0,0,0,.816.8H26.4a.732.732,0,0,0,.8-.8V-7.856a.732.732,0,0,0-.8-.8H24.608a.737.737,0,0,0-.816.8ZM30.336-8.08a.313.313,0,0,0-.432-.128.325.325,0,0,0-.16.432c.128.352.272.784.384,1.2a.46.46,0,0,0,.672.3.464.464,0,0,0,.256-.688A4.206,4.206,0,0,0,30.336-8.08ZM23.36-6.368a.458.458,0,0,0,.24-.688,4.356,4.356,0,0,0-.672-1.024.321.321,0,0,0-.432-.112.3.3,0,0,0-.16.416c.128.352.24.7.352,1.088A.463.463,0,0,0,23.36-6.368Zm6.016.416a.466.466,0,0,0,.432-.608,7.367,7.367,0,0,0-.368-1.248c-.1-.192-.208-.288-.4-.256-.208.032-.288.16-.288.4.032.4.032.816.032,1.216C28.784-6.064,28.96-5.92,29.376-5.952ZM27.792-7.728a6.831,6.831,0,0,1-.464,1.056.468.468,0,0,0,.24.688.476.476,0,0,0,.7-.32A6.365,6.365,0,0,0,28.5-7.552q.048-.36-.24-.432A.374.374,0,0,0,27.792-7.728Zm-5.84,1.792a.453.453,0,0,0,.448-.608,7.729,7.729,0,0,0-.352-1.184.357.357,0,0,0-.416-.256.335.335,0,0,0-.288.384c.032.4.032.768.032,1.168C21.376-6.048,21.552-5.888,21.952-5.936Zm-.832-1.5c.016-.256-.048-.4-.256-.448-.224-.064-.368.016-.464.256a7.842,7.842,0,0,1-.608,1.216.5.5,0,0,0,.224.768.5.5,0,0,0,.752-.288A5.891,5.891,0,0,0,21.12-7.44Zm3.84-.224a.151.151,0,0,1,.16-.16h.752a.151.151,0,0,1,.16.16v.624a.151.151,0,0,1-.16.16H25.12a.151.151,0,0,1-.16-.16Zm4.912,5.248H22.8c-.112,0-.176-.064-.144-.192a1.935,1.935,0,0,1,.08-.288c.032-.1.08-.16.192-.16h6.256a.848.848,0,0,0,.944-.928v-.848a.848.848,0,0,0-.944-.928H21.44a.483.483,0,0,0-.528.512.483.483,0,0,0,.528.512h6.7a.151.151,0,0,1,.16.16v.352a.151.151,0,0,1-.16.16H22.176c-.576,0-.848.128-1.008.56a8.182,8.182,0,0,0-.4,1.168c-.176.64.192.928,1.024.928h6.88a.165.165,0,0,1,.176.208,5.759,5.759,0,0,1-.24,1.008c-.112.4-.432.448-2.576.032-.3-.048-.5.032-.576.288a.473.473,0,0,0,.288.624c2.416,1.12,4.224.992,4.64-.4a14.076,14.076,0,0,0,.384-1.712A.817.817,0,0,0,29.872-2.416ZM19.76-5.36a.48.48,0,0,0-.624.352A36.9,36.9,0,0,1,17.2-.624.937.937,0,0,0,17.648.864.938.938,0,0,0,19.056.192a29.761,29.761,0,0,0,1.072-4.944C20.176-5.088,20.048-5.3,19.76-5.36ZM39.648-1.024a.91.91,0,0,0-.24-1.456,13.4,13.4,0,0,0-1.536-1.008A17.329,17.329,0,0,0,39.088-9.04c.064-.816-.256-1.2-.992-1.2H36.432c.144-.832.256-1.616.352-2.336.1-.592-.208-.928-.816-.976-.624-.048-.976.208-1.056.784l-.368,2.528H33.36a.516.516,0,0,0-.576.576.516.516,0,0,0,.576.576h.992a52.659,52.659,0,0,1-1.072,5.2.817.817,0,0,0,.576,1.152.879.879,0,0,0,1.152-.688c.016-.08.048-.144.064-.224.288.192.576.4.848.608A9.121,9.121,0,0,1,33.072.512a.483.483,0,0,0-.16.7c.16.256.416.272.7.112a9.709,9.709,0,0,0,3.5-3.376q.5.48,1.008,1.008A.935.935,0,0,0,39.648-1.024ZM46.56-6.848h-2.5V-8.5a13.407,13.407,0,0,0,2.608-2.7,1.113,1.113,0,0,0-.256-1.616,1.5,1.5,0,0,0-1.728.08H39.824a.53.53,0,0,0-.576.576.535.535,0,0,0,.576.592h4.608c.144,0,.208.1.144.224A10.532,10.532,0,0,1,43.5-9.5a1.508,1.508,0,0,0-.48-.08c-.672,0-1.04.352-1.04.928v1.808h-2.56a.548.548,0,0,0-.608.608.56.56,0,0,0,.608.624h2.56v4.544c0,.912-.272,1.088-2.144.848-.352-.048-.576.064-.64.352a.493.493,0,0,0,.336.624C42.4,2,44.064,1.3,44.064-.528V-5.616h2.5a.565.565,0,0,0,.624-.624A.56.56,0,0,0,46.56-6.848ZM35.344-4.672c.32-1.328.624-2.9.9-4.416H37.1a.165.165,0,0,1,.176.208,19.146,19.146,0,0,1-.88,4.64C36.048-4.4,35.68-4.544,35.344-4.672Zm20.3,3.648a.91.91,0,0,0-.24-1.456,13.4,13.4,0,0,0-1.536-1.008A17.329,17.329,0,0,0,55.088-9.04c.064-.816-.256-1.2-.992-1.2H52.432c.144-.832.256-1.616.352-2.336.1-.592-.208-.928-.816-.976-.624-.048-.976.208-1.056.784l-.368,2.528H49.36a.516.516,0,0,0-.576.576.516.516,0,0,0,.576.576h.992a52.659,52.659,0,0,1-1.072,5.2.817.817,0,0,0,.576,1.152.879.879,0,0,0,1.152-.688c.016-.08.048-.144.064-.224.288.192.576.4.848.608A9.121,9.121,0,0,1,49.072.512a.483.483,0,0,0-.16.7c.16.256.416.272.7.112a9.709,9.709,0,0,0,3.5-3.376q.5.48,1.008,1.008A.935.935,0,0,0,55.648-1.024ZM62.56-6.848h-2.5V-8.5a13.407,13.407,0,0,0,2.608-2.7,1.113,1.113,0,0,0-.256-1.616,1.5,1.5,0,0,0-1.728.08H55.824a.53.53,0,0,0-.576.576.535.535,0,0,0,.576.592h4.608c.144,0,.208.1.144.224A10.532,10.532,0,0,1,59.5-9.5a1.508,1.508,0,0,0-.48-.08c-.672,0-1.04.352-1.04.928v1.808h-2.56a.548.548,0,0,0-.608.608.56.56,0,0,0,.608.624h2.56v4.544c0,.912-.272,1.088-2.144.848-.352-.048-.576.064-.64.352a.493.493,0,0,0,.336.624C58.4,2,60.064,1.3,60.064-.528V-5.616h2.5a.565.565,0,0,0,.624-.624A.56.56,0,0,0,62.56-6.848ZM51.344-4.672c.32-1.328.624-2.9.9-4.416H53.1a.165.165,0,0,1,.176.208,19.146,19.146,0,0,1-.88,4.64C52.048-4.4,51.68-4.544,51.344-4.672ZM71.6-11.424h5.824a.556.556,0,0,0,.592-.624.551.551,0,0,0-.592-.608H71.6a.54.54,0,0,0-.576.608A.545.545,0,0,0,71.6-11.424Zm-.848,7.648c-.1-.256-.336-.32-.656-.208-.448.16-.9.3-1.376.448V-7.008h.928a.5.5,0,0,0,.56-.576.5.5,0,0,0-.56-.56H68.72v-3.168h1.392a.511.511,0,0,0,.56-.576.511.511,0,0,0-.56-.576H65.328a.511.511,0,0,0-.56.576.511.511,0,0,0,.56.576h1.408v3.168H65.648a.5.5,0,0,0-.56.56.511.511,0,0,0,.56.576h1.088v3.984c-.352.08-.7.144-1.072.208a.883.883,0,0,0-.832,1.2c.144.672.656.9,1.344.672a17.109,17.109,0,0,0,4.4-2.176A.506.506,0,0,0,70.752-3.776Zm8.272.592c-.064-.384-.288-.544-.576-.528-.256,0-.432.176-.432.544,0,2.064-.048,2.3-.752,2.3-.592,0-.752-.144-.752-.656V-7.168H78.08a.556.556,0,0,0,.592-.624.556.556,0,0,0-.592-.624H70.944a.545.545,0,0,0-.576.624.545.545,0,0,0,.576.624h.976c-.048,3.952-.784,5.952-3.456,7.616a.461.461,0,0,0-.24.64c.112.288.352.368.672.256,3.568-1.456,4.784-4.08,4.944-8.512h.752V-1.04c0,1.68.5,1.952,2.608,1.952C79.264.912,79.536.224,79.024-3.184Z" transform="translate(74 44.006)" fill="#4a4a4a"/>
  </g>
</svg>
